HIERARCHY
ROOT Pelvis
{
	OFFSET 0.000000 0.000000 0.000000
	CHANNELS 6 Xposition Yposition Zposition Zrotation Yrotation Xrotation 
	JOINT Left_hip
	{
		OFFSET 0.076090 -0.089427 -0.010735
		CHANNELS 3 Zrotation Yrotation Xrotation
		JOINT Left_knee
		{
			OFFSET 0.030200 -0.359518 -0.003501
			CHANNELS 3 Zrotation Yrotation Xrotation
			JOINT Left_ankle
			{
				OFFSET -0.011005 -0.371022 -0.045888
				CHANNELS 3 Zrotation Yrotation Xrotation
				JOINT Left_foot
				{
					OFFSET 0.023930 -0.052103 0.111084
					CHANNELS 3 Zrotation Yrotation Xrotation
					End Site
					{
						OFFSET 0.000000 0.000000 0.000000
					}
				}
			}
		}
	}
	JOINT Right_hip
	{
		OFFSET -0.073836 -0.088112 -0.007709
		CHANNELS 3 Zrotation Yrotation Xrotation
		JOINT Right_knee
		{
			OFFSET -0.035715 -0.367809 -0.006536
			CHANNELS 3 Zrotation Yrotation Xrotation
			JOINT Right_ankle
			{
				OFFSET 0.013718 -0.371958 -0.043815
				CHANNELS 3 Zrotation Yrotation Xrotation
				JOINT Right_foot
				{
					OFFSET -0.021936 -0.046387 0.114542
					CHANNELS 3 Zrotation Yrotation Xrotation
					End Site
					{
						OFFSET 0.000000 0.000000 0.000000
					}
				}
			}
		}
	}
	JOINT Spine1
	{
		OFFSET -0.001865 0.102064 -0.019455
		CHANNELS 3 Zrotation Yrotation Xrotation
		JOINT Spine2
		{
			OFFSET 0.003082 0.129260 -0.001938
			CHANNELS 3 Zrotation Yrotation Xrotation
			JOINT Spine3
			{
				OFFSET 0.001104 0.048093 0.026561
				CHANNELS 3 Zrotation Yrotation Xrotation
				JOINT Neck
				{
					OFFSET -0.002010 0.204222 -0.047183
					CHANNELS 3 Zrotation Yrotation Xrotation
					JOINT Head
					{
						OFFSET 0.005050 0.063649 0.048489
						CHANNELS 3 Zrotation Yrotation Xrotation
						End Site
						{
							OFFSET 0.000000 0.000000 0.000000
						}
					}
				}
				JOINT Left_collar
				{
					OFFSET 0.072979 0.114065 -0.031633
					CHANNELS 3 Zrotation Yrotation Xrotation
					JOINT Left_shoulder
					{
						OFFSET 0.083419 0.032092 -0.006530
						CHANNELS 3 Zrotation Yrotation Xrotation
						JOINT Left_elbow
						{
							OFFSET 0.239393 -0.012014 -0.025060
							CHANNELS 3 Zrotation Yrotation Xrotation
							JOINT Left_wrist
							{
								OFFSET 0.227297 0.008116 0.000384
								CHANNELS 3 Zrotation Yrotation Xrotation
								JOINT Left_palm
								{
									OFFSET 0.074607 -0.009248 -0.012277
									CHANNELS 3 Zrotation Yrotation Xrotation
									End Site
									{
										OFFSET 0.000000 0.000000 0.000000
									}
								}
							}
						}
					}
				}
				JOINT Right_collar
				{
					OFFSET -0.074980 0.111880 -0.037894
					CHANNELS 3 Zrotation Yrotation Xrotation
					JOINT Right_shoulder
					{
						OFFSET -0.087565 0.034353 -0.009323
						CHANNELS 3 Zrotation Yrotation Xrotation
						JOINT Right_elbow
						{
							OFFSET -0.236838 -0.013719 -0.019794
							CHANNELS 3 Zrotation Yrotation Xrotation
							JOINT Right_wrist
							{
								OFFSET -0.235053 0.006433 -0.003853
								CHANNELS 3 Zrotation Yrotation Xrotation
								JOINT Right_palm
								{
									OFFSET -0.075499 -0.006894 -0.009792
									CHANNELS 3 Zrotation Yrotation Xrotation
									End Site
									{
										OFFSET 0.000000 0.000000 0.000000
									}
								}
							}
						}
					}
				}
			}
		}
	}
}
MOTION
Frames: 11
Frame Time: 0.100000
1.061705 0.194888 -0.864615 7.315866 -4.417355 -175.976122 3.465610 4.933835 11.561437 -1.945704 -16.718336 5.375404 -6.755984 8.269503 -17.682947 18.877795 4.514848 -2.652938 0.653491 -0.120808 -14.305310 2.708850 -0.583466 -1.814791 15.709290 -7.637191 -6.635161 -18.874551 -7.177416 1.047859 0.486901 2.349538 8.415914 2.996333 -3.018087 6.987600 3.171767 2.089382 4.279359 7.797059 8.113284 -13.034179 1.037058 -4.546534 -16.232015 0.078588 -11.366487 2.051592 -54.291705 14.531068 25.510220 -61.439282 -53.390244 111.699904 58.069761 -28.949540 14.598601 -27.848642 -15.086388 -36.135454 -12.925553 19.366398 -16.669180 44.800565 44.144135 4.556153 -151.408844 38.131559 -114.956307 -55.390378 21.963164 8.386394 26.164758 17.201964 -24.247460 
1.056008 0.214509 -0.920672 5.509073 -6.674028 -175.962831 4.204590 5.516272 17.108083 -1.961610 -19.618453 2.661555 -7.730521 8.513290 -20.207786 18.389942 0.969519 -1.336400 -1.276349 -0.620412 -16.342877 3.019277 -2.268881 1.793024 14.628691 -9.660495 -8.420859 -16.787008 -7.044686 4.217724 1.447056 0.880014 7.267349 1.908268 -2.449779 8.064902 2.205685 1.985783 3.128257 1.590499 4.518227 -13.835054 -3.748985 -4.476284 -16.819150 -3.492448 -13.890901 2.131059 -49.110986 14.726294 28.150035 -63.566305 -52.946156 111.507578 57.456038 -29.443426 13.114202 -29.011577 -14.554816 -36.052142 -11.918319 22.042670 -17.369120 24.876310 42.822839 -7.402176 -145.990750 37.862603 -115.567087 -49.239645 20.522169 6.805015 23.940118 15.455776 -22.914623 
1.041368 0.239923 -0.991959 4.212754 -8.892969 -174.235496 4.744017 3.861730 19.474450 -1.554458 -20.806247 3.845214 -8.009619 10.168587 -23.407134 17.252156 -4.024579 0.480269 -0.290923 2.092491 -17.692765 2.576924 0.696295 8.684265 13.420950 -12.025379 -6.266532 -15.073111 -5.411350 6.350598 1.694863 -0.483362 3.718971 1.881849 -1.920237 7.992284 1.393235 1.921741 1.450089 -3.808153 0.522810 -14.946015 -8.330064 -3.993065 -15.359201 -8.539486 -15.390889 3.293872 -42.551271 16.240811 30.262438 -67.891164 -53.420663 112.522937 55.884575 -30.203445 11.273504 -30.411556 -15.506801 -36.197013 -7.996003 25.727939 -16.314055 4.968328 39.659063 -17.581507 -140.600078 39.650546 -115.563724 -44.925957 21.296361 6.909244 23.106411 14.448428 -21.884567 
1.018105 0.260404 -1.076615 4.761192 -8.152830 -173.659396 5.202362 1.055894 21.399581 -1.110427 -20.724235 9.868622 -10.144131 13.216970 -23.129054 19.296767 -6.232693 -0.774706 3.002245 9.668347 -20.290434 2.688127 2.599199 21.761073 8.911946 -17.511239 -9.443479 -12.456918 -4.927188 7.127708 2.204885 -2.639299 0.247476 2.149507 -0.441954 7.465176 0.521044 1.791925 0.179110 -5.773224 -0.963558 -15.678548 -12.677993 -2.550667 -12.993150 -12.433603 -14.430630 4.922991 -40.492043 17.983882 30.629057 -66.574385 -56.877952 110.028948 53.550569 -30.779090 11.235650 -28.231336 -14.350700 -37.847191 -5.407498 28.214870 -15.245710 -2.079675 40.747963 -19.709946 -136.493301 41.547884 -113.558080 -41.676760 20.856395 3.656255 18.971115 10.504629 -19.875534 
0.996174 0.271675 -1.159002 6.172636 -7.098818 -175.438828 7.555468 0.071963 18.016806 -3.622741 -19.600648 28.562510 -14.551217 11.257336 -14.130863 18.414182 -8.440782 -4.329882 8.908312 8.768078 -11.285947 2.403540 3.416485 20.031329 1.761782 -15.282582 -14.074008 -5.239460 -9.089837 9.345916 2.856478 -1.650856 -0.631907 2.102108 -1.543296 7.066659 0.501692 1.881443 -1.562065 -8.124919 -1.645585 -14.145281 -13.312526 -0.413266 -13.321592 -14.369868 -15.471961 5.395214 -39.096257 19.308481 31.565405 -65.300261 -57.108254 108.736625 54.288483 -31.329940 9.621788 -27.807843 -13.035205 -36.499890 -4.504326 30.175594 -14.667374 -5.296885 40.426378 -21.581172 -136.382338 43.849923 -113.200290 -42.850431 20.160950 0.650634 17.694016 9.129562 -16.967221 
0.978312 0.278230 -1.217169 6.724937 -4.768592 -178.111647 7.355320 -1.447641 7.397884 -6.620797 -14.643136 53.835898 -14.603304 12.145892 -8.202413 15.538936 -8.420310 -6.338018 12.303788 5.298515 -0.236716 1.962369 7.341300 13.803821 -0.824682 -13.689495 -15.274504 -4.153948 -9.903124 9.977312 3.252649 1.228272 2.751883 1.379761 -2.615302 5.985988 0.545858 2.518995 -1.472157 -10.047046 -3.967127 -17.096879 -12.076819 0.881040 -14.394903 -13.932268 -18.054699 4.462639 -37.012156 19.880849 32.230144 -67.398579 -55.135754 112.050204 55.264078 -31.153310 9.262519 -29.597085 -13.003846 -35.262131 -6.773744 32.147674 -16.101271 -9.604475 36.375520 -24.353046 -135.620347 44.680237 -113.490494 -44.749450 19.620645 -0.657957 19.315907 9.492023 -16.934741 
0.965533 0.280317 -1.263404 6.113723 1.248310 -179.580362 6.104128 -1.226475 -2.523266 -2.748026 -6.436578 58.615285 -10.363209 17.229760 -14.130867 15.268580 -6.235143 -4.551117 11.459732 2.310050 7.805031 1.697410 13.611174 9.473224 1.872822 -11.541931 -15.598337 -6.274094 -8.823209 8.416731 2.857123 4.322860 5.673828 0.232292 -2.423917 6.029693 0.340829 3.836178 -0.489330 -9.854662 -4.228095 -20.089621 -11.356698 1.622408 -16.344763 -13.924328 -18.287174 3.233977 -36.009408 20.266483 31.857510 -68.864477 -54.652702 113.527222 57.491294 -30.730088 10.329418 -31.719618 -14.273084 -35.026841 -7.912893 32.681177 -16.513652 -12.348391 34.695187 -25.842001 -135.485581 44.797071 -114.898959 -47.151653 19.784461 0.577089 22.330861 11.524281 -20.063503 
0.956645 0.285935 -1.303545 6.181096 8.060429 -179.385750 5.323177 -1.182849 -10.730483 0.587013 -2.963646 45.759703 -10.346946 19.169372 -14.800067 19.402482 -4.495513 -3.478149 10.075417 1.275417 11.832750 1.434410 18.841581 8.523201 5.148484 -8.957208 -16.621916 -9.192732 -7.818037 6.305751 2.859152 6.104049 7.730922 -0.429936 -2.214527 5.389831 0.394211 4.757916 0.725544 -9.560335 -2.256293 -22.544406 -11.253165 1.140047 -16.755445 -12.417844 -16.428944 1.511479 -37.363844 21.435605 30.766350 -68.913010 -56.244138 114.691213 56.938267 -30.908975 11.820133 -31.940025 -14.513881 -35.906847 -9.357463 31.415153 -17.070045 -11.563128 35.557000 -26.473340 -135.394257 44.642364 -114.910342 -47.149771 20.383290 1.000858 23.396225 11.894510 -21.932777 
0.951464 0.297461 -1.344050 6.996706 14.214314 -179.117624 5.716230 -1.910778 -14.380873 0.093512 -8.895299 25.179217 -14.475726 14.037494 -10.449772 25.077938 -3.190103 -3.017332 9.260539 1.098485 15.360474 0.907249 23.474149 8.679360 7.904936 -7.357417 -18.548154 -12.460259 -5.582796 4.247299 3.258094 6.720414 9.396407 -0.768204 -2.473538 5.984977 0.446943 5.178674 1.209077 -9.302803 0.781497 -24.098545 -11.073490 -0.413962 -16.879275 -10.981107 -15.346128 0.555484 -37.209510 23.261476 30.204963 -69.534131 -58.634325 115.391647 54.198205 -31.128799 12.067264 -30.808188 -14.064674 -37.184200 -10.835308 30.894571 -17.776040 -10.143099 35.412545 -26.543713 -135.796313 43.977921 -115.738558 -45.747002 21.140053 0.459606 23.400542 11.173237 -22.029974 
0.945677 0.311075 -1.393157 8.569766 21.661062 -177.528827 8.355766 -5.385492 -14.606474 0.717126 -23.479801 7.992886 -19.711684 8.096893 -7.580815 30.890826 -3.908720 -1.861480 7.119123 1.468840 18.888837 0.530182 29.555750 6.996277 11.406304 -5.304230 -19.764382 -16.502814 -3.912005 2.585772 2.489197 7.964253 8.653854 -0.244875 -2.855859 7.152929 0.935471 5.726145 1.739017 -9.732433 4.379684 -25.680117 -10.839468 -2.509131 -17.237864 -8.776516 -13.829433 -0.370072 -36.639168 25.606389 30.032951 -64.044818 -59.943472 105.561245 55.611497 -28.150121 7.076593 -31.190012 -14.280895 -36.974681 -11.421573 30.342884 -18.413304 -9.193697 36.094810 -26.172841 -136.506713 43.550415 -116.964160 -44.948693 20.969622 0.499102 24.214336 11.430422 -22.645061 
0.943964 0.328607 -1.457652 11.843007 30.699834 -174.381640 9.866844 -5.816086 -14.228716 -0.424384 -23.504681 10.223276 -21.419152 7.204434 -7.094241 32.989351 -1.128103 -3.022599 4.012404 2.308868 21.560496 -0.194598 35.490207 5.292072 14.962113 -3.018846 -19.178807 -23.202006 -1.089730 -1.915832 3.249487 8.327873 6.069669 -0.005464 -2.184819 9.123002 1.025600 6.419190 1.757213 -9.497149 4.992986 -26.455080 -10.905456 -3.058564 -18.694736 -7.451834 -10.587696 -0.864502 -39.588804 26.438703 25.418666 -58.199214 -62.496791 91.508027 39.088490 -17.803199 -1.753090 -29.411216 -13.045524 -31.700421 -11.428488 28.966977 -17.605291 -10.173377 37.283949 -27.705077 -136.536233 42.676675 -118.711509 -39.047572 18.487759 3.160739 26.167026 12.816957 -22.872147 
